<svg xmlns="http://www.w3.org/2000/svg" viewBox="0 0 1400 720" role="img" aria-labelledby="title desc">
  <title id="title">Generated research provenance flow</title>
  <desc id="desc">A generated artifact flows through metadata, evidence, claim ledger review state, and publication surfaces with explicit caveats.</desc>
  <defs>
    <linearGradient id="bg" x1="0" y1="0" x2="1" y2="1"><stop stop-color="#080d18"/><stop offset="1" stop-color="#11182b"/></linearGradient>
    <linearGradient id="accent" x1="0" y1="0" x2="1" y2="0"><stop stop-color="#7dd3fc"/><stop offset="1" stop-color="#c084fc"/></linearGradient>
    <marker id="arrow" markerWidth="12" markerHeight="12" refX="10" refY="6" orient="auto"><path d="M2 2 L10 6 L2 10 Z" fill="#9ea8ff"/></marker>
    <style>
      .title{font:800 40px ui-sans-serif,system-ui,Segoe UI,sans-serif;fill:#edf3ff;letter-spacing:-1px}
      .sub{font:500 19px ui-sans-serif,system-ui,Segoe UI,sans-serif;fill:#aebbd3}
      .box{fill:rgba(16,22,36,.92);stroke:rgba(255,255,255,.18);stroke-width:2}
      .label{font:800 20px ui-sans-serif,system-ui,Segoe UI,sans-serif;fill:#edf3ff}
      .small{font:500 15px ui-sans-serif,system-ui,Segoe UI,sans-serif;fill:#aebbd3}
      .caveat-title{font:800 22px ui-sans-serif,system-ui,Segoe UI,sans-serif;fill:#edf3ff}
      .caveat{font:500 16px ui-sans-serif,system-ui,Segoe UI,sans-serif;fill:#aebbd3}
      .arrow{stroke:url(#accent);stroke-width:4;fill:none;stroke-linecap:round;marker-end:url(#arrow)}
      .rail{stroke:rgba(255,255,255,.12);stroke-width:8;stroke-linecap:round}
      .dot{fill:url(#accent)}
    </style>
  </defs>
  <rect width="1400" height="720" rx="34" fill="url(#bg)"/>
  <circle cx="145" cy="70" r="240" fill="#7dd3fc" opacity=".10"/>
  <circle cx="1220" cy="80" r="290" fill="#c084fc" opacity=".10"/>

  <text x="70" y="76" class="title">Provenance-first generated research artifacts</text>
  <text x="70" y="110" class="sub">Every artifact points back to metadata, evidence, limitations, and review state.</text>

  <line class="rail" x1="165" y1="360" x2="1235" y2="360"/>

  <g transform="translate(70 230)">
    <rect class="box" width="210" height="170" rx="24"/>
    <circle class="dot" cx="34" cy="44" r="12"/>
    <text class="label" x="58" y="51">Generated</text>
    <text class="label" x="58" y="77">text</text>
    <text class="small" x="28" y="112">Markdown draft</text>
    <text class="small" x="28" y="137">from writer</text>
  </g>

  <g transform="translate(335 230)">
    <rect class="box" width="210" height="170" rx="24"/>
    <circle class="dot" cx="34" cy="44" r="12"/>
    <text class="label" x="58" y="51">Metadata</text>
    <text class="small" x="28" y="98">AI generated</text>
    <text class="small" x="28" y="123">source ID</text>
    <text class="small" x="28" y="148">review state</text>
  </g>

  <g transform="translate(600 230)">
    <rect class="box" width="210" height="170" rx="24"/>
    <circle class="dot" cx="34" cy="44" r="12"/>
    <text class="label" x="58" y="51">Evidence</text>
    <text class="small" x="28" y="98">Run notes</text>
    <text class="small" x="28" y="123">metrics</text>
    <text class="small" x="28" y="148">decisions</text>
  </g>

  <g transform="translate(865 230)">
    <rect class="box" width="210" height="170" rx="24"/>
    <circle class="dot" cx="34" cy="44" r="12"/>
    <text class="label" x="58" y="51">Claim</text>
    <text class="label" x="58" y="77">ledger</text>
    <text class="small" x="28" y="112">Claim limits</text>
    <text class="small" x="28" y="137">audit notes</text>
  </g>

  <g transform="translate(1130 230)">
    <rect class="box" width="210" height="170" rx="24"/>
    <circle class="dot" cx="34" cy="44" r="12"/>
    <text class="label" x="58" y="51">Published</text>
    <text class="small" x="28" y="98">GitHub corpus</text>
    <text class="small" x="28" y="123">HF dataset</text>
    <text class="small" x="28" y="148">public review</text>
  </g>

  <path class="arrow" d="M280 315 H335"/>
  <path class="arrow" d="M545 315 H600"/>
  <path class="arrow" d="M810 315 H865"/>
  <path class="arrow" d="M1075 315 H1130"/>

  <g transform="translate(170 505)">
    <rect class="box" width="1060" height="92" rx="24"/>
    <text class="caveat-title" x="30" y="35">Boundary condition</text>
    <text class="caveat" x="30" y="64">AI-generated; not peer-reviewed. Released for workflow study, audit, and critique.</text>
  </g>
</svg>
